<mxfile host="app.diagrams.net" agent="Mozilla/5.0 (Windows NT 10.0; Win64; x64) AppleWebKit/537.36 (KHTML, like Gecko) Chrome/139.0.0.0 Safari/537.36 Edg/139.0.0.0" version="28.1.2">
  <diagram name="Page-1" id="mS2EaWhQXqpq4a00Ledn">
    <mxGraphModel dx="975" dy="576" grid="1" gridSize="10" guides="1" tooltips="1" connect="1" arrows="1" fold="1" page="1" pageScale="1" pageWidth="850" pageHeight="1100" math="0" shadow="0">
      <root>
        <mxCell id="0" />
        <mxCell id="1" parent="0" />
        <mxCell id="InYvnrDjR8Nm9ubzhJU9-1" value="" style="rounded=0;whiteSpace=wrap;html=1;" parent="1" vertex="1">
          <mxGeometry x="40" y="50" width="170" height="100" as="geometry" />
        </mxCell>
        <mxCell id="InYvnrDjR8Nm9ubzhJU9-2" value="TECHSTACK&lt;div&gt;FrontEnd - ReactJs&lt;/div&gt;&lt;div&gt;BackEnd - Node.js (API)&lt;/div&gt;&lt;div&gt;AI - AzureOpen AI&lt;/div&gt;&lt;div&gt;Hosting - Azure App Services&lt;/div&gt;" style="text;html=1;align=center;verticalAlign=middle;whiteSpace=wrap;rounded=0;" parent="1" vertex="1">
          <mxGeometry x="40" y="80" width="170" height="30" as="geometry" />
        </mxCell>
        <mxCell id="38t3UJlDZkV0MQMj2zpW-1" value="" style="rounded=0;whiteSpace=wrap;html=1;" vertex="1" parent="1">
          <mxGeometry x="255" y="50" width="170" height="100" as="geometry" />
        </mxCell>
        <mxCell id="38t3UJlDZkV0MQMj2zpW-2" value="FRAMEWORK&lt;div&gt;Login&lt;/div&gt;&lt;div&gt;CustomerSide&lt;/div&gt;&lt;div&gt;Main/D365&lt;/div&gt;" style="text;html=1;align=center;verticalAlign=middle;whiteSpace=wrap;rounded=0;" vertex="1" parent="1">
          <mxGeometry x="255" y="80" width="170" height="30" as="geometry" />
        </mxCell>
        <mxCell id="38t3UJlDZkV0MQMj2zpW-5" value="" style="curved=1;endArrow=classic;html=1;rounded=0;exitX=1;exitY=0.5;exitDx=0;exitDy=0;" edge="1" parent="1" source="38t3UJlDZkV0MQMj2zpW-1">
          <mxGeometry width="50" height="50" relative="1" as="geometry">
            <mxPoint x="490" y="180" as="sourcePoint" />
            <mxPoint x="540" y="130" as="targetPoint" />
            <Array as="points">
              <mxPoint x="540" y="180" />
              <mxPoint x="490" y="130" />
            </Array>
          </mxGeometry>
        </mxCell>
        <mxCell id="38t3UJlDZkV0MQMj2zpW-10" style="edgeStyle=orthogonalEdgeStyle;rounded=0;orthogonalLoop=1;jettySize=auto;html=1;exitX=0;exitY=1;exitDx=0;exitDy=0;entryX=0.5;entryY=0;entryDx=0;entryDy=0;" edge="1" parent="1" source="38t3UJlDZkV0MQMj2zpW-6" target="38t3UJlDZkV0MQMj2zpW-8">
          <mxGeometry relative="1" as="geometry" />
        </mxCell>
        <mxCell id="38t3UJlDZkV0MQMj2zpW-6" value="" style="ellipse;whiteSpace=wrap;html=1;fontSize=11;" vertex="1" parent="1">
          <mxGeometry x="570" y="90" width="120" height="80" as="geometry" />
        </mxCell>
        <mxCell id="38t3UJlDZkV0MQMj2zpW-4" value="START" style="text;html=1;align=center;verticalAlign=middle;whiteSpace=wrap;rounded=0;" vertex="1" parent="1">
          <mxGeometry x="545" y="115" width="170" height="30" as="geometry" />
        </mxCell>
        <mxCell id="38t3UJlDZkV0MQMj2zpW-18" value="" style="edgeStyle=orthogonalEdgeStyle;rounded=0;orthogonalLoop=1;jettySize=auto;html=1;" edge="1" parent="1" source="38t3UJlDZkV0MQMj2zpW-8" target="38t3UJlDZkV0MQMj2zpW-17">
          <mxGeometry relative="1" as="geometry" />
        </mxCell>
        <mxCell id="38t3UJlDZkV0MQMj2zpW-8" value="" style="shape=parallelogram;perimeter=parallelogramPerimeter;whiteSpace=wrap;html=1;fixedSize=1;" vertex="1" parent="1">
          <mxGeometry x="490" y="230" width="120" height="60" as="geometry" />
        </mxCell>
        <mxCell id="38t3UJlDZkV0MQMj2zpW-9" value="" style="shape=parallelogram;perimeter=parallelogramPerimeter;whiteSpace=wrap;html=1;fixedSize=1;" vertex="1" parent="1">
          <mxGeometry x="650" y="230" width="120" height="60" as="geometry" />
        </mxCell>
        <mxCell id="38t3UJlDZkV0MQMj2zpW-11" style="edgeStyle=orthogonalEdgeStyle;rounded=0;orthogonalLoop=1;jettySize=auto;html=1;exitX=1;exitY=1;exitDx=0;exitDy=0;" edge="1" parent="1" source="38t3UJlDZkV0MQMj2zpW-6" target="38t3UJlDZkV0MQMj2zpW-9">
          <mxGeometry relative="1" as="geometry" />
        </mxCell>
        <mxCell id="38t3UJlDZkV0MQMj2zpW-12" value="Login" style="text;html=1;align=center;verticalAlign=middle;whiteSpace=wrap;rounded=0;" vertex="1" parent="1">
          <mxGeometry x="465" y="245" width="170" height="30" as="geometry" />
        </mxCell>
        <mxCell id="38t3UJlDZkV0MQMj2zpW-13" value="EngineerSide" style="text;html=1;align=center;verticalAlign=middle;whiteSpace=wrap;rounded=0;" vertex="1" parent="1">
          <mxGeometry x="410" y="245" width="90" height="30" as="geometry" />
        </mxCell>
        <mxCell id="38t3UJlDZkV0MQMj2zpW-14" value="CustomerSide" style="text;html=1;align=center;verticalAlign=middle;whiteSpace=wrap;rounded=0;" vertex="1" parent="1">
          <mxGeometry x="680" y="200" width="170" height="30" as="geometry" />
        </mxCell>
        <mxCell id="38t3UJlDZkV0MQMj2zpW-15" value="" style="rounded=0;whiteSpace=wrap;html=1;" vertex="1" parent="1">
          <mxGeometry x="495" y="450" width="110" height="60" as="geometry" />
        </mxCell>
        <mxCell id="38t3UJlDZkV0MQMj2zpW-19" value="" style="edgeStyle=orthogonalEdgeStyle;rounded=0;orthogonalLoop=1;jettySize=auto;html=1;" edge="1" parent="1" source="38t3UJlDZkV0MQMj2zpW-16" target="38t3UJlDZkV0MQMj2zpW-15">
          <mxGeometry relative="1" as="geometry" />
        </mxCell>
        <mxCell id="38t3UJlDZkV0MQMj2zpW-16" value="" style="rhombus;whiteSpace=wrap;html=1;" vertex="1" parent="1">
          <mxGeometry x="500" y="320" width="100" height="100" as="geometry" />
        </mxCell>
        <mxCell id="38t3UJlDZkV0MQMj2zpW-20" style="edgeStyle=orthogonalEdgeStyle;rounded=0;orthogonalLoop=1;jettySize=auto;html=1;exitX=0;exitY=0.5;exitDx=0;exitDy=0;entryX=0.5;entryY=0;entryDx=0;entryDy=0;" edge="1" parent="1" source="38t3UJlDZkV0MQMj2zpW-17" target="38t3UJlDZkV0MQMj2zpW-8">
          <mxGeometry relative="1" as="geometry">
            <mxPoint x="550.0000000000001" y="196.1290322580645" as="targetPoint" />
            <Array as="points">
              <mxPoint x="445" y="370" />
              <mxPoint x="445" y="200" />
              <mxPoint x="550" y="200" />
            </Array>
          </mxGeometry>
        </mxCell>
        <mxCell id="38t3UJlDZkV0MQMj2zpW-17" value="HasAccount?" style="text;html=1;align=center;verticalAlign=middle;whiteSpace=wrap;rounded=0;" vertex="1" parent="1">
          <mxGeometry x="465" y="355" width="170" height="30" as="geometry" />
        </mxCell>
        <mxCell id="38t3UJlDZkV0MQMj2zpW-21" value="Yes" style="text;html=1;align=center;verticalAlign=middle;whiteSpace=wrap;rounded=0;" vertex="1" parent="1">
          <mxGeometry x="530" y="410" width="90" height="30" as="geometry" />
        </mxCell>
        <mxCell id="38t3UJlDZkV0MQMj2zpW-22" value="No" style="text;html=1;align=center;verticalAlign=middle;whiteSpace=wrap;rounded=0;" vertex="1" parent="1">
          <mxGeometry x="440" y="330" width="90" height="30" as="geometry" />
        </mxCell>
        <mxCell id="38t3UJlDZkV0MQMj2zpW-23" value="Main" style="text;html=1;align=center;verticalAlign=middle;whiteSpace=wrap;rounded=0;" vertex="1" parent="1">
          <mxGeometry x="505" y="465" width="90" height="30" as="geometry" />
        </mxCell>
        <mxCell id="38t3UJlDZkV0MQMj2zpW-24" value="CustomerChat" style="text;html=1;align=center;verticalAlign=middle;whiteSpace=wrap;rounded=0;" vertex="1" parent="1">
          <mxGeometry x="625" y="245" width="170" height="30" as="geometry" />
        </mxCell>
      </root>
    </mxGraphModel>
  </diagram>
</mxfile>
